<svg xmlns="http://www.w3.org/2000/svg" width="95" height="39" viewBox="0 0 95 39" fill="none" class="mdl-js">
<path d="M84.784 21.6901L80.77 15.18C80.4852 14.7173 80.3875 14.1639 80.4967 13.6319C80.606 13.1 80.9141 12.6295 81.3584 12.3158C81.3824 12.2968 81.4077 12.2795 81.4341 12.2641L81.474 12.239L91.1303 6.31573L91.1701 6.29189C91.198 6.27466 91.2246 6.26142 91.2512 6.24817L87.2837 21.3854C87.2439 21.5438 87.1726 21.6925 87.0738 21.8226C86.9345 21.999 86.7545 22.1393 86.5491 22.2314C86.3437 22.3236 86.1191 22.3649 85.8943 22.3519C85.6695 22.3389 85.4511 22.272 85.2578 22.1567C85.0645 22.0415 84.9019 21.8815 84.784 21.6901Z" fill="#EFA320"/>
<path d="M81.304 15.3271C81.0983 15.2714 80.9125 15.1589 80.768 15.0026C80.6235 14.8463 80.5261 14.6525 80.4871 14.4435C80.4145 14.0429 80.4579 13.63 80.6123 13.2531C80.7666 12.8763 81.0254 12.5511 81.3584 12.3158C81.3876 12.2681 91.1117 6.29985 91.2511 6.24819C91.6119 6.05798 92.0195 5.97427 92.4263 6.00689C92.833 6.0395 93.222 6.18708 93.5477 6.43233C93.7193 6.56099 93.8508 6.73565 93.9267 6.93595C94.0027 7.13626 94.02 7.35397 93.9767 7.56372L92.0919 16.8771C92.0571 17.0498 91.987 17.2134 91.886 17.3578C91.785 17.5023 91.6552 17.6244 91.5048 17.7166C91.3544 17.8088 91.1866 17.8692 91.0117 17.8939C90.8369 17.9186 90.6589 17.9071 90.4887 17.8601L81.304 15.3271Z" fill="#273053"/>
<path d="M1.00002 33.2796V10.0809C0.998614 9.69414 1.07397 9.31095 1.22174 8.95341C1.36951 8.59586 1.58677 8.27102 1.86101 7.99762C2.13524 7.72422 2.46101 7.50766 2.81955 7.36044C3.17809 7.21321 3.5623 7.13822 3.95004 7.13979H18.198V10.889H4.76026V18.2126H18.198V19.9202C18.181 20.2984 18.0206 20.6559 17.7491 20.9205C17.0929 21.612 15.8537 21.9618 14.0646 21.9618H4.76026V33.2796H1.00002Z" fill="#273053"/>
<path d="M39.0766 7.14246H42.7904L42.8209 13.6512L39.0766 18.3967V7.14246Z" fill="#273053"/>
<path d="M28.8757 33.5406C27.2593 33.5406 25.8208 33.2756 24.6015 32.7523C23.4325 32.2658 22.3844 31.5301 21.5306 30.5969C20.6945 29.6574 20.0614 28.5561 19.6711 27.3617C19.2434 26.0672 19.0307 24.7117 19.0415 23.3488C19.0303 22.0137 19.25 20.6867 19.691 19.4261C20.1057 18.2519 20.7684 17.1803 21.6342 16.2836C22.5473 15.3646 23.6463 14.6502 24.8578 14.1878C26.1382 13.6791 27.6471 13.4207 29.338 13.4207H38.2106V20.894L42.3773 15.5722L42.3972 15.555C43.2112 14.8598 44.1177 14.2802 45.0909 13.8327C46.1313 13.3532 47.2653 13.1094 48.4115 13.1187C50.0054 13.1187 51.4332 13.3836 52.6618 13.9056C53.8381 14.3893 54.8933 15.1252 55.7526 16.0611C56.5873 17.0016 57.2201 18.1026 57.6122 19.2963C58.0386 20.5915 58.2513 21.9472 58.2418 23.3104C58.253 24.6455 58.0333 25.9726 57.5923 27.2332C57.1778 28.4071 56.5151 29.4783 55.649 30.3743C54.7366 31.2923 53.6392 32.0067 52.4294 32.4702C51.1476 32.9789 49.6401 33.2372 47.9492 33.2372H39.0766V25.8779L38.2106 27V33.2346H34.457V31.4699L34.0439 31.7614C33.4604 32.168 32.8421 32.5226 32.1963 32.8212C31.1561 33.3021 30.0222 33.5478 28.8757 33.5406ZM28.8372 17.1302C28.0166 17.1237 27.2018 17.2674 26.4331 17.5541C25.7178 17.8238 25.0677 18.2414 24.5258 18.7796C23.9725 19.3399 23.5407 20.0077 23.2573 20.7416C22.9392 21.5737 22.7824 22.4584 22.7951 23.3488C22.7775 24.31 22.941 25.2658 23.2772 26.1667C23.5669 26.9289 24.0114 27.623 24.5829 28.2056C25.1253 28.7486 25.7754 29.1727 26.4916 29.4509C27.2403 29.7359 28.0358 29.8793 28.8372 29.8735C29.4734 29.8762 30.1043 29.7589 30.6968 29.5278C31.2805 29.2972 31.8283 28.9849 32.3238 28.6004C32.806 28.2334 33.23 27.7962 33.5817 27.3034C33.9081 26.8431 34.1779 26.3454 34.3853 25.8209V25.8037V25.7852C34.4316 25.5671 34.4587 25.3455 34.4663 25.1228C34.4782 24.83 34.4849 24.5306 34.4849 24.2338V17.1328L28.8372 17.1302ZM48.4181 16.7857C47.7819 16.7825 47.1509 16.8999 46.5586 17.1315C45.9828 17.3534 45.4451 17.6631 44.9647 18.0496C44.4958 18.4316 44.0784 18.8724 43.7228 19.3612C43.3843 19.8182 43.1182 20.3245 42.9338 20.8622C42.8565 21.0856 42.8157 21.32 42.8129 21.5564C42.7997 21.8518 42.793 22.1459 42.793 22.4281V29.5291H48.4181C49.2515 29.5382 50.0794 29.3945 50.8607 29.1051C51.5763 28.836 52.2265 28.4183 52.7681 27.8797C53.3211 27.3186 53.7528 26.6504 54.0366 25.9163C54.3543 25.0846 54.5111 24.2004 54.4988 23.3104C54.5162 22.3493 54.3527 21.3935 54.0166 20.4926C53.7267 19.7306 53.2822 19.0365 52.711 18.4537C52.1636 17.9078 51.5069 17.4835 50.7837 17.2083C50.0278 16.9239 49.226 16.7807 48.4181 16.7857Z" fill="#273053"/>
<path d="M69.229 33.5406C67.6125 33.5406 66.174 33.2756 64.9547 32.7523C63.7855 32.2661 62.7374 31.5304 61.8838 30.5968C61.0477 29.6573 60.4147 28.556 60.0243 27.3617C59.5972 26.067 59.3846 24.7117 59.3947 23.3488C59.3835 22.0137 59.6033 20.6867 60.0442 19.426C60.4589 18.2519 61.1216 17.1803 61.9874 16.2836C62.9006 15.3646 63.9995 14.6501 65.211 14.1878C66.4915 13.679 68.0003 13.4207 69.6912 13.4207H78.5691V33.2345H74.8102V31.4699L74.3971 31.7613C73.8137 32.1681 73.1955 32.5228 72.5496 32.8212C71.5094 33.3021 70.3755 33.5478 69.229 33.5406ZM69.1904 17.1302C68.3698 17.1237 67.555 17.2674 66.7863 17.5541C66.071 17.8238 65.421 18.2414 64.879 18.7795C64.326 19.3401 63.8943 20.0079 63.6105 20.7416C63.2924 21.5737 63.1356 22.4584 63.1483 23.3488C63.1307 24.3099 63.2942 25.2658 63.6304 26.1667C63.9201 26.9288 64.3646 27.623 64.9361 28.2056C65.4786 28.7485 66.1286 29.1727 66.8448 29.4509C67.5935 29.7359 68.389 29.8792 69.1904 29.8735C69.8266 29.8761 70.4575 29.7588 71.05 29.5277C71.6335 29.2967 72.1813 28.9845 72.6771 28.6004C73.1578 28.231 73.5801 27.7915 73.9296 27.2967C74.2534 26.8355 74.521 26.3374 74.7265 25.813L74.7332 25.7957V25.7772C74.7794 25.5591 74.8065 25.3375 74.8142 25.1148C74.8262 24.822 74.8328 24.5226 74.8328 24.2258V17.1249L69.1904 17.1302Z" fill="#273053"/>
</svg>